#!OML:ASF I:\golf\golf\golf 2\Subject 1\2002-09-07\Subject1.ASF
:FULLY-SPECIFIED
:DEGREES
265
root -6.85189 18.1514 -1.19597 -176.715 39.0037 -182.272
lowerback -6.47307 0.860729 4.21809
upperback 1.45036 1.87392 14.8105
thorax 4.81566 1.5195 14.2245
lowerneck -0.913547 -18.1746 -5.05311
upperneck 24.7606 -21.5083 -6.60879
head 7.66044 -10.4563 -2.70722
rclavicle -4.39314e-014 1.90833e-013
rhumerus 8.03408 23.8243 -96.6015
rradius 23.0251
rwrist -44.1045
rhand -13.1513 -16.2665
rfingers 7.12502
rthumb 12.9473 -45.8448
lclavicle -4.39314e-014 1.90833e-013
lhumerus 6.57452 -39.2568 96.8964
lradius 23.3934
lwrist 44.2466
lhand -1.64609 65.4242
lfingers 7.12502
lthumb -155.987 -273.942
rfemur -2.71652 -3.02813 4.37197
rtibia 37.197
rfoot 4.69244 -20.5542
rtoes 3.98358
lfemur -12.463 -4.81908 -21.5658
ltibia 6.34244
lfoot 13.0507 -35.4511
ltoes 16.0215
266
root -6.83729 18.149 -1.24395 -176.364 37.4296 -181.455
lowerback -6.34413 1.13023 4.6991
upperback 0.906676 2.46724 15.2433
thorax 4.01889 1.93368 14.4652
lowerneck -0.423598 -18.8849 -5.28683
upperneck 24.7565 -22.4521 -6.47969
head 7.61922 -10.8736 -2.65722
rclavicle 3.08365e-014 -6.04305e-014
rhumerus 10.6489 27.7119 -95.8104
rradius 22.5673
rwrist -40.4215
rhand -10.1426 -16.9914
rfingers 7.12502
rthumb 15.8463 -46.3629
lclavicle 3.08365e-014 -6.04305e-014
lhumerus 7.01931 -35.8105 96.9174
lradius 24.2126
lwrist 46.129
lhand -3.21129 64.511
lfingers 7.12502
lthumb -157.489 -273.219
rfemur -1.78184 -3.11862 5.13442
rtibia 36.828
rfoot 5.2098 -20.7074
rtoes 6.00905
lfemur -13.02 -5.38459 -21.0305
ltibia 7.71834
lfoot 13.7166 -36.0205
ltoes 18.5559
267
root -6.8262 18.1413 -1.28656 -176.251 35.9533 -180.859
lowerback -6.12072 1.51706 5.3314
upperback 0.493928 3.1653 15.3957
thorax 3.30979 2.3771 14.2621
lowerneck -0.194329 -19.6068 -5.4176
upperneck 24.8217 -23.4775 -6.07104
head 7.67122 -11.3044 -2.57857
rclavicle 3.27995e-014 1.49486e-013
rhumerus 13.7866 31.2405 -94.6871
rradius 22.4068
rwrist -36.352
rhand -7.43218 -15.8049
rfingers 7.12502
rthumb 18.4551 -44.9494
lclavicle 3.27995e-014 1.49486e-013
lhumerus 7.75387 -33.3171 96.3669
lradius 25.6087
lwrist 48.6179
lhand -4.1515 63.8577
lfingers 7.12502
lthumb -158.392 -272.672
rfemur -0.836727 -3.12468 5.71515
rtibia 36.4872
rfoot 5.64143 -20.8639
rtoes 7.71615
lfemur -13.3749 -5.86452 -20.6762
ltibia 8.8885
lfoot 14.3025 -36.7191
ltoes 20.1777
268
root -6.81189 18.1323 -1.33579 -176.312 34.6219 -180.554
lowerback -5.99312 1.9746 5.87589
upperback 0.192407 3.89048 15.35
thorax 2.7929 2.79932 13.8805
lowerneck -0.157612 -20.2892 -5.37502
upperneck 24.8004 -24.4969 -5.56855
head 7.72046 -11.7215 -2.5083
rclavicle 2.94201e-014 -7.31528e-014
rhumerus 17.2271 34.5296 -93.0719
rradius 22.8605
rwrist -32.3914
rhand -5.41345 -14.2409
rfingers 7.12502
rthumb 20.3961 -43.1897
lclavicle 2.94201e-014 -7.31528e-014
lhumerus 8.71604 -30.7303 95.7498
lradius 27.0513
lwrist 50.1669
lhand -19.4469 65.9611
lfingers 7.12502
lthumb -173.126 -275.829
rfemur 0.0616962 -3.21422 5.97783
rtibia 36.1859
rfoot 6.85568 -20.4781
rtoes 6.29885
lfemur -13.5709 -6.2201 -20.5996
ltibia 9.87936
lfoot 14.9341 -37.3703
ltoes 21.2764
269
root -6.79593 18.1276 -1.385 -176.298 33.369 -180.195
lowerback -5.85252 2.46843 6.49876
upperback -0.101434 4.65544 15.2496
thorax 2.29514 3.23247 13.3844
lowerneck -0.124935 -20.952 -5.10909
upperneck 24.6036 -25.5093 -5.13033
head 7.6757 -12.1332 -2.46459
rclavicle -7.15625e-014 1.62208e-013
rhumerus 20.7037 36.8245 -91.3787
rradius 23.6551
rwrist -27.9725
rhand -3.56078 -12.7827
rfingers 7.12502
rthumb 22.1757 -41.5307
lclavicle -7.15625e-014 1.62208e-013
lhumerus 9.71143 -28.5432 95.0308
lradius 28.7613
lwrist 51.3451
lhand -10.1095 61.152
lfingers 7.12502
lthumb -164.122 -270.521
rfemur 0.855352 -3.28993 6.32186
rtibia 35.91
rfoot 8.1928 -20.0278
rtoes 4.48348
lfemur -13.7426 -6.48746 -20.4416
ltibia 10.7071
lfoot 15.3263 -38.0934
ltoes 21.6503
270
root -6.78514 18.1253 -1.42832 -176.148 32.2656 -179.623
lowerback -5.64963 2.96558 7.24411
upperback -0.308606 5.44351 15.2409
thorax 1.8689 3.68024 12.9315
lowerneck -0.199806 -21.5587 -4.88255
upperneck 24.2554 -26.4723 -4.59816
head 7.61954 -12.5301 -2.39254
rclavicle 5.1684e-015 1.08139e-013
rhumerus 24.2463 38.2567 -89.6145
rradius 24.513
rwrist -22.767
rhand -1.64015 -10.9279
rfingers 7.12502
rthumb 24.0185 -39.4451
lclavicle 5.1684e-015 1.08139e-013
lhumerus 10.86 -26.5556 94.2493
lradius 30.8288
lwrist 52.9049
lhand -8.56925 59.1765
lfingers 7.12502
lthumb -162.639 -91.5789
rfemur 1.49878 -3.19359 6.9073
rtibia 35.6544
rfoot 8.94845 -19.9874
rtoes 4.9558
lfemur -13.9429 -6.59956 -20.0667
ltibia 11.437
lfoot 15.2247 -38.9714
ltoes 21.1916
271
root -6.78145 18.1209 -1.47536 -175.965 31.2879 -179.164
lowerback -5.48806 3.4334 7.89529
upperback -0.485613 6.18617 15.2376
thorax 1.51535 4.0964 12.5469
lowerneck -0.25835 -22.0408 -4.7563
upperneck 23.6824 -27.3017 -3.90129
head 7.52749 -12.8746 -2.24548
rclavicle 2.70347e-014 1.27222e-014
rhumerus 28.5176 40.9473 -86.3217
rradius 26.0188
rwrist -20.5401
rhand -1.29127 -9.53596
rfingers 7.12502
rthumb 24.353 -38.0087
lclavicle 2.70347e-014 1.27222e-014
lhumerus 12.0486 -24.2867 93.6749
lradius 32.871
lwrist 53.8848
lhand -11.313 57.3572
lfingers 7.12502
lthumb -165.281 -93.1853
rfemur 1.96356 -3.16491 7.31962
rtibia 35.4195
rfoot 9.50615 -19.9837
rtoes 6.36384
lfemur -14.2186 -6.75072 -19.7758
ltibia 12.1368
lfoot 14.9046 -39.7764
ltoes 20.6707
272
root -6.7819 18.1176 -1.52466 -175.722 30.4156 -178.786
lowerback -5.31121 3.91165 8.51344
upperback -0.707082 6.94284 15.1716
thorax 1.12431 4.50862 12.1006
lowerneck -0.352618 -22.4606 -4.46156
upperneck 23.1225 -28.0244 -3.33205
head 7.40535 -13.1689 -2.14345
rclavicle -2.8625e-014 2.19458e-013
rhumerus 32.9041 43.0402 -82.8129
rradius 27.5517
rwrist -18.2836
rhand -0.673215 -7.48435
rfingers 7.12502
rthumb 24.9454 -35.8762
lclavicle -2.8625e-014 2.19458e-013
lhumerus 13.1577 -22.5063 92.9657
lradius 34.9789
lwrist 54.1684
lhand -12.7429 54.4338
lfingers 7.12502
lthumb -166.659 -96.0133
rfemur 2.26823 -3.19121 7.62455
rtibia 35.1923
rfoot 10.3177 -19.8407
rtoes 6.89408
lfemur -14.5647 -6.81075 -19.5596
ltibia 12.7863
lfoot 15.581 -40.1379
ltoes 21.9403
273
root -6.78108 18.118 -1.57472 -175.455 29.5549 -178.454
lowerback -5.18705 4.37799 9.03581
upperback -0.921628 7.67292 15.0839
thorax 0.783207 4.89948 11.6917
lowerneck -0.636652 -22.8123 -3.93653
upperneck 22.6069 -28.6485 -2.86125
head 7.2806 -13.4094 -2.10205
rclavicle -3.02153e-014 -1.27222e-014
rhumerus 36.7166 44.073 -80.067
rradius 29.2008
rwrist -15.6724
rhand -0.559635 -5.258
rfingers 7.12502
rthumb 25.0542 -33.6347
lclavicle -3.02153e-014 -1.27222e-014
lhumerus 14.3199 -21.5326 91.8954
lradius 37.2765
lwrist 54.0818
lhand -13.9067 51.0343
lfingers 7.12502
lthumb -167.781 -99.3426
rfemur 2.51655 -3.31318 7.88463
rtibia 34.9679
rfoot 11.3806 -19.6191
rtoes 6.89362
lfemur -14.9192 -6.89411 -19.382
ltibia 13.3358
lfoot 16.9903 -40.0166
ltoes 24.1474
274
root -6.77676 18.1174 -1.62978 -175.293 28.6456 -178.274
lowerback -5.09033 4.89158 9.33933
upperback -1.24934 8.46382 14.8743
thorax 0.336943 5.30555 11.2582
lowerneck -0.583338 -23.1789 -3.13728
upperneck 21.8304 -29.3134 -2.25193
head 6.99975 -13.6489 -1.9846
rclavicle -3.10104e-014 3.18055e-015
rhumerus 39.2122 43.7531 -79.1106
rradius 30.6572
rwrist -12.0873
rhand -0.632695 -3.65237
rfingers 7.12502
rthumb 24.9842 -32.0388
lclavicle -3.10104e-014 3.18055e-015
lhumerus 15.3451 -21.1862 90.7934
lradius 39.5701
lwrist 53.7707
lhand -14.922 47.5208
lfingers 7.12502
lthumb -168.76 -102.8
rfemur 2.85025 -3.58285 7.96326
rtibia 34.7489
rfoot 12.2971 -19.4747
rtoes 7.99389
lfemur -15.1584 -7.02581 -19.3634
ltibia 13.7631
lfoot 17.4597 -40.3869
ltoes 24.195
275
root -6.77149 18.1195 -1.68392 -175.074 27.6779 -178.03
lowerback -4.87874 5.3827 9.70139
upperback -1.73316 9.26632 14.5865
thorax -0.307679 5.70859 10.6678
lowerneck -0.327026 -23.5289 -2.27658
upperneck 21.1004 -29.9092 -1.69116
head 6.68865 -13.8505 -1.85327
rclavicle -4.6118e-014 2.44903e-013
rhumerus 40.9649 43.0373 -79.1386
rradius 31.9596
rwrist -8.43221
rhand -0.525656 -2.29075
rfingers 7.12502
rthumb 25.0868 -30.6629
lclavicle -4.6118e-014 2.44903e-013
lhumerus 16.1258 -20.6176 89.8767
lradius 41.8631
lwrist 53.6508
lhand -15.0339 45.471
lfingers 7.12502
lthumb -168.868 -104.844
rfemur 3.13909 -3.82712 8.17725
rtibia 34.5402
rfoot 13.1254 -19.6088
rtoes 9.44154
lfemur -15.3739 -7.11473 -19.2624
ltibia 14.0546
lfoot 17.7615 -41.02
ltoes 23.0763
276
root -6.76689 18.1301 -1.73227 -174.578 26.6239 -177.58
lowerback -4.75245 5.55836 10.1636
upperback -2.09666 9.6811 14.5811
thorax -0.763937 5.94625 10.3634
lowerneck -0.625644 -23.5371 -2.05656
upperneck 20.7246 -30.0162 -1.28841
head 6.64522 -13.8715 -1.78626
rclavicle 3.65764e-014 -1.145e-013
rhumerus 43.5774 43.658 -77.9683
rradius 33.4601
rwrist -6.07821
rhand -0.555689 -0.449267
rfingers 7.12502
rthumb 25.058 -28.8254
lclavicle 3.65764e-014 -1.145e-013
lhumerus 16.9917 -18.8519 89.0934
lradius 44.0576
lwrist 53.1685
lhand -16.0473 43.9419
lfingers 7.12502
lthumb -169.845 -106.323
rfemur 3.16422 -4.02621 8.72799
rtibia 34.3667
rfoot 14.2495 -19.7227
rtoes 9.31993
lfemur -15.7538 -7.32846 -18.8655
ltibia 14.1715
lfoot 19.2109 -40.8808
ltoes 23.674
277
root -6.76405 18.1426 -1.7819 -174.078 25.5197 -177.188
lowerback -4.77437 5.54009 10.5854
upperback -2.33244 9.803 14.6866
thorax -0.993687 6.0463 10.2383
lowerneck -1.04484 -23.3284 -2.2303
upperneck 20.3273 -29.8406 -0.829042
head 6.6771 -13.7928 -1.67807
rclavicle -7.55382e-014 -1.39944e-013
rhumerus 46.8133 44.936 -76.0981
rradius 34.9543
rwrist -4.2975
rhand -1.37347 1.62178
rfingers 7.12502
rthumb 24.2742 -26.8615
lclavicle -7.55382e-014 -1.39944e-013
lhumerus 17.8804 -16.4789 88.368
lradius 46.1689
lwrist 52.1808
lhand -18.6755 40.9032
lfingers 7.12502
lthumb -172.382 -109.254
rfemur 3.12489 -4.29407 9.2332
rtibia 34.2485
rfoot 15.6592 -19.7986
rtoes 9.44683
lfemur -16.0933 -7.63119 -18.4956
ltibia 14.109
lfoot 21.0536 -40.3159
ltoes 25.5135
278
root -6.76167 18.1506 -1.83159 -173.858 24.3559 -177.098
lowerback -4.62769 5.64288 10.85
upperback -2.63769 10.0733 14.5635
thorax -1.37824 6.18791 9.90528
lowerneck -1.42103 -23.2598 -2.13811
upperneck 19.9383 -29.851 -0.406704
head 6.66256 -13.7817 -1.60194
rclavicle 1.59028e-015 1.20861e-013
rhumerus 49.9584 45.6571 -74.333
rradius 36.2369
rwrist -2.74518
rhand -2.52478 3.51124
rfingers 7.12502
rthumb 23.17 -25.1152
lclavicle 1.59028e-015 1.20861e-013
lhumerus 18.7697 -14.6808 87.6841
lradius 48.3809
lwrist 51.9703
lhand -21.5673 37.7114
lfingers 7.12502
lthumb -175.173 -112.364
rfemur 3.25102 -4.60571 9.44625
rtibia 34.1664
rfoot 17.0603 -20.2332
rtoes 11.4076
lfemur -16.1892 -7.92527 -18.4541
ltibia 13.9005
lfoot 22.9663 -39.668
ltoes 27.6434
279
root -6.75523 18.1557 -1.87831 -173.673 23.2034 -177.079
lowerback -4.36368 5.79014 11.0272
upperback -3.03079 10.4319 14.3587
thorax -1.9242 6.36196 9.50035
lowerneck -1.79397 -23.2434 -1.97702
upperneck 19.6884 -29.9087 -0.105802
head 6.66439 -13.7847 -1.57184
rclavicle -4.77083e-015 9.54166e-014
rhumerus 52.9714 46.1341 -72.6712
rradius 37.438
rwrist -1.34532
rhand -3.51514 5.20398
rfingers 7.12502
rthumb 22.2195 -23.5389
lclavicle -4.77083e-015 9.54166e-014
lhumerus 19.7195 -13.032 87.0333
lradius 50.4381
lwrist 51.7734
lhand -23.5268 34.9441
lfingers 7.12502
lthumb -177.066 -115.096
rfemur 3.3802 -4.77455 9.65902
rtibia 34.0943
rfoot 17.7828 -20.9991
rtoes 13.706
lfemur -16.2411 -8.13967 -18.4798
ltibia 13.6021
lfoot 24.241 -39.5752
ltoes 28.2524
